<svg xmlns="http://www.w3.org/2000/svg" xmlns:xlink="http://www.w3.org/1999/xlink" width="1600" height="500" viewBox="0 0 1600 500"><defs><clipPath id="a"><rect width="1600" height="500" rx="32" fill="#0d1117"/></clipPath><linearGradient id="b" y1="1" x2="0.002" y2="0.03" gradientUnits="objectBoundingBox"><stop offset="0" stop-color="#00ceff"/><stop offset="1" stop-color="#3d4145"/></linearGradient><linearGradient id="c" x1="-0.004" y1="0.998" x2="0.002" y2="0.013" gradientUnits="objectBoundingBox"><stop offset="0" stop-color="#017ffd"/><stop offset="1" stop-color="#31343a"/></linearGradient><linearGradient id="d" x2="0" y2="0.989" gradientUnits="objectBoundingBox"><stop offset="0" stop-color="#25282e"/><stop offset="1" stop-color="#8900ff"/></linearGradient><linearGradient id="e" x1="0.958" x2="0" y2="1" gradientUnits="objectBoundingBox"><stop offset="0" stop-color="#fff"/><stop offset="1" stop-color="#fff"/></linearGradient><clipPath id="g"><rect width="1600" height="500"/></clipPath></defs><g id="f" clip-path="url(#g)"><g clip-path="url(#a)"><rect width="1700" height="600" transform="translate(-50 -50)" fill="#0d1117"/><g transform="translate(977.583 297.583) rotate(150)" fill="none" stroke="#fff" stroke-width="8" opacity="0.2"><circle cx="130" cy="130" r="130" stroke="none"/><circle cx="130" cy="130" r="126" fill="none"/></g><g transform="translate(499.474 169.474) rotate(-30)" fill="none" stroke="#fff" stroke-width="6" opacity="0.148"><circle cx="220" cy="220" r="220" stroke="none"/><circle cx="220" cy="220" r="217" fill="none"/></g><g transform="translate(910.508 -193.222) rotate(59)" fill="none" stroke="#fff" stroke-width="6" opacity="0.098"><circle cx="323" cy="323" r="323" stroke="none"/><circle cx="323" cy="323" r="320" fill="none"/></g><g transform="translate(537.024 813.954) rotate(-110)" fill="none" stroke="#fff" stroke-width="4" opacity="0.08"><circle cx="440" cy="440" r="440" stroke="none"/><circle cx="440" cy="440" r="438" fill="none"/></g><g transform="translate(225 -325)" fill="none" stroke="#fff" stroke-width="2" opacity="0.095"><circle cx="575" cy="575" r="575" stroke="none"/><circle cx="575" cy="575" r="574" fill="none"/></g><g transform="translate(80 -470)" fill="none" stroke="#fff" stroke-width="2" opacity="0.096"><circle cx="720" cy="720" r="720" stroke="none"/><circle cx="720" cy="720" r="719" fill="none"/></g><path d="M800,120v8a122,122,0,0,1,0,244v8a130,130,0,0,0,0-260Z" transform="translate(1617.82 66.507) rotate(150)" opacity="0.596" fill="url(#b)"/><path d="M265.116,45.894v6a214.059,214.059,0,0,1,83.3,411.186,212.668,212.668,0,0,1-83.3,16.814v6c121.5,0,220-98.5,220-220S386.619,45.894,265.116,45.894Z" transform="translate(437.456 152.287) rotate(-30)" opacity="0.596" fill="url(#c)"/><path d="M71.639-6.544v6A317.364,317.364,0,0,1,363.73,193.067a318.064,318.064,0,0,1,0,246.778A316.731,316.731,0,0,1,71.639,633.456v6c178.388,0,323-144.612,323-323S250.027-6.544,71.639-6.544Z" transform="translate(1034.359 25.606) rotate(59)" opacity="0.596" fill="url(#d)"/><g fill="none" stroke="#25282e" stroke-width="2"><rect width="1600" height="500" rx="32" stroke="none"/><rect x="1" y="1" width="1598" height="498" rx="31" fill="none"/></g></g><path d="M3838.729,2839.754h-55a49.146,49.146,0,0,0-49.091,49.091v4.178h39l-44.913,44.913h55a49.146,49.146,0,0,0,49.091-49.091v-4.178h-39Zm-95.522,44.913a40.8,40.8,0,0,1,40.523-36.557h34.825L3782,2884.667Zm81.046,8.356a40.8,40.8,0,0,1-40.523,36.557H3748.9l36.557-36.557Z" transform="translate(-2983.729 -2638.754)" fill="url(#e)"/><g transform="translate(-3899 -1923)"><rect width="145" height="46" rx="14" transform="translate(5294 2321)" fill="#fff"/><path d="M8.06.182c4.134,0,6.422-2.574,6.422-5.434,0-6.4-9.308-4.368-9.308-8.008,0-1.482,1.066-2.184,2.5-2.132a2.4,2.4,0,0,1,2.6,2.158h4c-.234-3.276-2.782-5.174-6.5-5.174-3.744,0-6.4,1.976-6.4,5.252-.026,6.578,9.334,4.212,9.334,8.138,0,1.3-1.014,2.21-2.73,2.21A2.492,2.492,0,0,1,5.226-5.226h-3.9C1.378-1.794,4.29.182,8.06.182Zm9.49-4.654C17.55-1.17,19.4,0,22.152,0H24.44V-3.068H22.75c-1.144,0-1.534-.416-1.534-1.378v-6.968H24.44V-14.4H21.216v-3.562H17.55V-14.4H15.834v2.99H17.55Zm7.93-2.782c0,4.5,2.912,7.488,6.552,7.488a5.681,5.681,0,0,0,4.784-2.34V0h3.666V-14.4H36.816v2.054a5.7,5.7,0,0,0-4.758-2.288C28.392-14.638,25.48-11.752,25.48-7.254ZM36.816-7.2c0,2.73-1.82,4.238-3.822,4.238-1.95,0-3.8-1.56-3.8-4.29a3.842,3.842,0,0,1,3.8-4.186C35-11.44,36.816-9.932,36.816-7.2Zm7.15,2.73c0,3.3,1.846,4.472,4.6,4.472h2.288V-3.068h-1.69c-1.144,0-1.534-.416-1.534-1.378v-6.968h3.224V-14.4H47.632v-3.562H43.966V-14.4H42.25v2.99h1.716ZM54.678-16.12a2.15,2.15,0,0,0,2.236-2.132,2.15,2.15,0,0,0-2.236-2.132,2.135,2.135,0,0,0-2.236,2.132A2.135,2.135,0,0,0,54.678-16.12ZM52.832,0h3.64V-14.4h-3.64ZM59.41,0h3.64V-6.136L67.938,0H72.67l-6.4-7.176L72.618-14.4H67.886L63.05-8.294V-19.24H59.41ZM80.34.234A7.2,7.2,0,0,0,87.854-7.2a7.118,7.118,0,0,0-7.41-7.436A7.118,7.118,0,0,0,73.034-7.2,7.05,7.05,0,0,0,80.34.234Zm0-3.172c-1.95,0-3.614-1.4-3.614-4.264,0-2.886,1.742-4.264,3.666-4.264S84.11-10.088,84.11-7.2C84.11-4.342,82.264-2.938,80.34-2.938Z" transform="translate(5338.674 2353.075)"/><g transform="translate(1834.338 -813.041)"><path d="M3483.662,3145.041h0a12,12,0,0,0-12,12h12l12-12Z"/><path d="M3471.662,3169.041h12a12,12,0,0,0,12-12h-12Z"/></g></g></g></svg>